:SAMPLES-PER-SECOND 30
:FRAME-RANGE 1-3549
:FULLY-SPECIFIED
:DEGREES
222
root  -28.0159 38.6762 -36.3524 -8.00543 -77.2647 8.11865
RightUpLeg  -19.2693 -12.4565 -11.4093
RightLeg  7.52753 -11.0501 -0.853294
RightFoot  -0.609332 -1.11469 11.7841
RightToes  -1.11029e-010 1.2921e-014 -6.02303e-014
Spine  8.89776 4.36827 11.1765
Spine1  -5.68005 5.87694 -4.72008
HEad  15.6327 22.2853 -7.58409
LeftShoulder1  -0.594485 5.87003 -18.4594
LeftArm  -65.248 18.662 15.3377
LeftForeArm  127.73 -76.6269 -130.688
LeftHand  0.491054 8.91701 16.7161
RightShoulder  5.28582 5.68941 50.3859
RightArm  -3.7894 -2.64305 5.77946
RightForeArm  25.4971 -5.52707 15.3598
RightHand  0.197394 5.01694 1.8948
LeftUpLeg  11.0572 5.53049 0.35648
LeftLeg  11.5089 -15.6459 -2.95234
LeftFoot  -20.2391 0.180616 0.760198
LeftToes  -1.9349e-011 -1.19469e-011 -2.02219e-012
223
root  -29.4842 38.4894 -36.7272 -2.88062 -76.5159 2.65395
RightUpLeg  -20.6039 -9.86123 -9.1095
RightLeg  13.3173 -7.23737 -2.00998
RightFoot  2.95412 -0.937511 7.62635
RightToes  -1.11029e-010 1.2921e-014 -6.02303e-014
Spine  8.97593 4.33027 13.1735
Spine1  -5.13041 6.00413 -4.91946
HEad  15.5847 21.9315 -6.82883
LeftShoulder1  -0.631719 5.75574 -21.5871
LeftArm  -55.2388 21.7233 12.258
LeftForeArm  149.47 -68.1436 -153.196
LeftHand  0.543285 9.11074 17.4272
RightShoulder  5.39679 5.71978 51.2588
RightArm  -3.21581 -2.16353 6.42065
RightForeArm  25.18 -7.20558 15.4829
RightHand  0.141518 4.75975 1.32092
LeftUpLeg  12.7567 3.44842 2.24523
LeftLeg  12.7243 -14.5172 -2.39423
LeftFoot  -21.4168 0.0487139 -0.905201
LeftToes  -1.9349e-011 -1.19469e-011 -2.02219e-012
224
root  -31.0523 38.2169 -37.1617 0.737137 -75.6423 -1.43037
RightUpLeg  -21.6309 -6.63053 -7.80121
RightLeg  20.3312 -7.56356 -3.30328
RightFoot  3.06196 -0.772363 6.2718
RightToes  -1.11029e-010 1.2921e-014 -6.02303e-014
Spine  9.07752 4.01311 14.938
Spine1  -4.99869 6.10651 -6.24836
HEad  16.1229 22.2313 -5.72461
LeftShoulder1  -0.558563 5.30052 -24.7868
LeftArm  -42.6706 22.5807 7.77341
LeftForeArm  158.775 -62.9431 -159.579
LeftHand  0.400205 8.37912 16.2136
RightShoulder  5.57481 5.83148 52.2875
RightArm  -1.61228 -1.74609 7.36585
RightForeArm  23.7232 -7.0174 15.9304
RightHand  0.0714911 4.37185 0.566833
LeftUpLeg  12.8942 -1.78926 3.4677
LeftLeg  17.5342 -10.1806 -3.16401
LeftFoot  -22.3815 -0.283075 -4.3168
LeftToes  -1.9349e-011 -1.19469e-011 -2.02219e-012
225
root  -32.6105 37.9354 -37.5877 2.62929 -73.9959 -4.12675
RightUpLeg  -21.4757 -7.66428 -6.3117
RightLeg  27.0464 -7.40345 -4.31788
RightFoot  -1.93445 -0.591908 7.02439
RightToes  -1.11029e-010 1.2921e-014 -6.02303e-014
Spine  9.35928 3.30099 16.0885
Spine1  -4.75276 5.79595 -6.82515
HEad  16.559 23.1176 -5.02716
LeftShoulder1  -0.328646 4.4887 -27.1659
LeftArm  -28.8471 23.1372 -0.356196
LeftForeArm  164.698 -65.1002 -158.298
LeftHand  0.15308 6.90028 13.2605
RightShoulder  5.82361 6.16607 52.7142
RightArm  1.5551 -1.36603 8.74415
RightForeArm  21.609 -6.445 16.5483
RightHand  0.0911677 4.45081 0.789108
LeftUpLeg  11.4265 -3.84832 5.55388
LeftLeg  25.7366 -8.89546 -4.31617
LeftFoot  -21.377 -0.713738 -9.56906
LeftToes  -1.9349e-011 -1.19469e-011 -2.02219e-012
226
root  -34.0016 37.7966 -37.943 6.61179 -71.4309 -8.39088
RightUpLeg  -20.2791 -10.3995 -4.05566
RightLeg  30.2251 -6.94272 -4.59819
RightFoot  -6.02188 -0.392665 7.55805
RightToes  -1.11029e-010 1.2921e-014 -6.02303e-014
Spine  8.80173 2.55542 17.8558
Spine1  -3.90202 5.33858 -5.9343
HEad  16.7375 23.6671 -5.27866
LeftShoulder1  -0.0876414 3.75736 -28.4094
LeftArm  -18.1759 23.4729 -11.6889
LeftForeArm  152.446 -76.4487 -136.923
LeftHand  -0.101499 4.40887 10.2796
RightShoulder  6.11409 6.71854 52.3612
RightArm  6.02939 -1.00019 10.1439
RightForeArm  19.7683 -5.48988 17.1622
RightHand  0.0912583 4.51912 0.780333
LeftUpLeg  6.36521 -4.63085 8.88668
LeftLeg  36.8094 -6.40156 -4.76527
LeftFoot  -14.9283 -0.416789 -16.0625
LeftToes  -1.9349e-011 -1.19469e-011 -2.02219e-012
227
root  -35.2854 37.736 -38.2603 10.1399 -68.8201 -12.1628
RightUpLeg  -18.5238 -13.5141 -1.66567
RightLeg  31.6009 -6.25938 -4.3973
RightFoot  -9.23772 -0.202699 7.60521
RightToes  -1.11029e-010 1.2921e-014 -6.02303e-014
Spine  8.70775 2.01073 19.6771
Spine1  -3.48911 5.07068 -4.83673
HEad  16.5238 23.6334 -5.75122
LeftShoulder1  0.146153 3.09287 -29.4368
LeftArm  -11.0236 21.2288 -21.0937
LeftForeArm  62.3648 -75.8851 -39.2588
LeftHand  -0.338853 0.622354 8.2555
RightShoulder  6.39783 7.29568 51.8745
RightArm  11.7256 -0.530249 10.9733
RightForeArm  18.8355 -2.45685 17.6417
RightHand  0.117795 5.05568 1.0021
LeftUpLeg  -0.425566 -5.3752 11.6665
LeftLeg  47.8828 -2.74917 -2.84072
LeftFoot  -2.63332 1.19715 -15.4395
LeftToes  -1.9349e-011 -1.19469e-011 -2.02219e-012
228
root  -36.4852 37.6998 -38.5001 12.007 -67.4492 -14.4546
RightUpLeg  -16.5431 -15.5673 -0.0147017
RightLeg  32.366 -5.51081 -4.02233
RightFoot  -11.8941 -0.0452174 7.37765
RightToes  -1.11029e-010 1.2921e-014 -6.02303e-014
Spine  9.50631 1.65386 21.064
Spine1  -3.74942 5.18252 -4.48508
HEad  16.4778 23.4653 -5.23699
LeftShoulder1  0.367066 2.4835 -29.8652
LeftArm  -3.00992 17.4091 -27.8466
LeftForeArm  36.9929 -55.1293 -12.9976
LeftHand  -0.519821 -0.801221 9.87434
RightShoulder  7.12796 8.53078 51.8578
RightArm  18.8838 -0.182495 11.0218
RightForeArm  15.6927 1.38794 17.763
RightHand  0.0809342 5.00354 0.599146
LeftUpLeg  -6.31334 -4.31176 12.971
LeftLeg  56.1273 0.0787119 0.618658
LeftFoot  8.00755 1.00085 -6.15441
LeftToes  -1.9349e-011 -1.19469e-011 -2.02219e-012
229
root  -37.8492 37.9941 -38.7089 11.0676 -67.4995 -13.6013
RightUpLeg  -13.2421 -16.6285 0.135758
RightLeg  30.5196 -4.74462 -3.27881
RightFoot  -13.3285 0.0306075 6.97741
RightToes  -1.11029e-010 1.2921e-014 -6.02303e-014
Spine  9.91106 1.71212 20.2013
Spine1  -4.04058 5.25264 -4.91283
HEad  16.4492 24.0314 -4.3119
LeftShoulder1  0.568664 1.93475 -30.145
LeftArm  9.09978 13.883 -32.3849
LeftForeArm  22.5477 -34.523 -6.40288
LeftHand  -0.576976 -1.55428 9.81448
RightShoulder  8.13418 10.2987 51.5967
RightArm  24.2187 0.720199 11.1603
RightForeArm  13.1891 3.60723 17.6567
RightHand  0.0762808 4.96805 0.551285
LeftUpLeg  -10.8798 -1.56714 12.2237
LeftLeg  60.5251 1.42077 3.2856
LeftFoot  4.93341 0.780893 -5.66898
LeftToes  -1.9349e-011 -1.19469e-011 -2.02219e-012
